<svg width="120" height="120" viewBox="0 0 120 120" fill="none" xmlns="http://www.w3.org/2000/svg">
<g clip-path="url(#clip0_1_62)">
<path d="M96.88 62.08L43.885 97.41C43.5085 97.6605 43.0712 97.8042 42.6195 97.8258C42.1678 97.8474 41.7187 97.7461 41.32 97.5327C40.9213 97.3192 40.588 97.0017 40.3556 96.6138C40.1231 96.2259 40.0002 95.7822 40 95.33V24.67C40.0002 24.2178 40.1231 23.7741 40.3556 23.3862C40.588 22.9983 40.9213 22.6807 41.32 22.4673C41.7187 22.2538 42.1678 22.1525 42.6195 22.1741C43.0712 22.1957 43.5085 22.3395 43.885 22.59L96.88 57.92C97.2224 58.1483 97.5031 58.4576 97.6973 58.8204C97.8915 59.1833 97.9931 59.5884 97.9931 60C97.9931 60.4115 97.8915 60.8167 97.6973 61.1795C97.5031 61.5424 97.2224 61.8517 96.88 62.08Z" fill="#B1FF42"/>
</g>
<defs>
<clipPath id="clip0_1_62">
<rect width="120" height="120" fill="white"/>
</clipPath>
</defs>
</svg>
