<svg width="100" height="100" viewBox="0 0 100 100" fill="none" xmlns="http://www.w3.org/2000/svg">
<rect width="100" height="100" rx="50" fill="#6BB38D"/>
<path d="M49.3875 78.8125C52.6875 78.8125 54.6375 76.4125 54.6375 72.8125C54.6375 66.6625 50.8875 63.3625 50.4375 51.2125C60.7875 57.6625 61.6875 62.4625 66.9375 65.6125C68.2875 66.3625 69.3375 66.6625 70.5375 66.6625C72.3375 66.6625 73.8375 65.7625 74.8875 64.1125C75.3375 63.3625 75.4875 62.4625 75.4875 61.5625C75.4875 59.7625 74.2875 57.9625 72.1875 56.7625C66.7875 53.7625 61.8375 55.2625 51.1875 49.7125C61.8375 43.8625 66.7875 45.3625 72.1875 42.3625C74.2875 41.0125 75.4875 39.3625 75.4875 37.4125C75.4875 36.6625 75.3375 35.7625 74.8875 34.8625C73.8375 33.2125 72.3375 32.3125 70.5375 32.3125C69.3375 32.3125 68.2875 32.6125 66.9375 33.3625C61.6875 36.5125 60.7875 41.7625 50.4375 48.0625C50.7375 35.9125 54.6375 32.4625 54.6375 26.1625C54.6375 22.5625 52.6875 20.3125 49.3875 20.3125C46.2375 20.3125 44.2875 22.5625 44.2875 26.1625C44.2875 32.4625 48.4875 35.7625 48.7875 48.0625C38.1375 41.6125 37.2375 36.5125 31.8375 33.3625C30.6375 32.6125 29.5875 32.3125 28.3875 32.3125C26.5875 32.3125 25.0875 33.2125 24.0375 34.8625C23.5875 35.7625 23.4375 36.6625 23.4375 37.4125C23.4375 39.3625 24.6375 41.0125 26.7375 42.3625C32.1375 45.3625 36.7875 43.8625 47.7375 49.7125C37.0875 55.4125 31.9875 53.7625 26.7375 56.7625C24.6375 57.9625 23.4375 59.7625 23.4375 61.5625C23.4375 62.4625 23.5875 63.3625 24.0375 64.1125C25.0875 65.7625 26.5875 66.6625 28.3875 66.6625C29.5875 66.6625 30.6375 66.3625 31.8375 65.6125C37.2375 62.4625 38.1375 57.8125 48.6375 51.2125C48.1875 63.5125 44.2875 66.5125 44.2875 72.8125C44.2875 76.4125 46.2375 78.8125 49.3875 78.8125Z" fill="black"/>
</svg>
